<?xml version="1.0" encoding="UTF-8" standalone="no"?>
<!DOCTYPE svg PUBLIC "-//W3C//DTD SVG 1.1//EN"
 "http://www.w3.org/Graphics/SVG/1.1/DTD/svg11.dtd">
<!-- Generated by graphviz version 2.43.0 (0)
 -->
<!-- Title: G Pages: 1 -->
<svg width="848pt" height="261pt"
 viewBox="0.00 0.00 847.80 260.80" xmlns="http://www.w3.org/2000/svg" xmlns:xlink="http://www.w3.org/1999/xlink">
<g id="graph0" class="graph" transform="scale(1 1) rotate(0) translate(14.4 246.4)">
<title>G</title>
<polygon fill="white" stroke="transparent" points="-14.4,14.4 -14.4,-246.4 833.4,-246.4 833.4,14.4 -14.4,14.4"/>
<text text-anchor="middle" x="409.5" y="-217.6" font-family="DejaVu Sans" font-size="13.00">Tok kontrolisanog corpus eksperimenta</text>
<!-- manifest -->
<g id="node1" class="node">
<title>manifest</title>
<polygon fill="#dfeceb" stroke="#176b61" points="221,-210 60,-210 60,-168 221,-168 221,-210"/>
<text text-anchor="middle" x="140.5" y="-196.8" font-family="DejaVu Sans" font-size="9.00">Zaključani corpus manifest</text>
<text text-anchor="middle" x="140.5" y="-186.8" font-family="DejaVu Sans" font-size="9.00">podaci, runtime, SQL instance,</text>
<text text-anchor="middle" x="140.5" y="-176.8" font-family="DejaVu Sans" font-size="9.00">redoslijed i budžet</text>
</g>
<!-- validate -->
<g id="node2" class="node">
<title>validate</title>
<polygon fill="#f3f5f5" stroke="#263238" points="422,-207 267,-207 267,-171 422,-171 422,-207"/>
<text text-anchor="middle" x="344.5" y="-191.8" font-family="DejaVu Sans" font-size="9.00">Validacija ugovora</text>
<text text-anchor="middle" x="344.5" y="-181.8" font-family="DejaVu Sans" font-size="9.00">i segmentisani plan</text>
</g>
<!-- manifest&#45;&gt;validate -->
<g id="edge1" class="edge">
<title>manifest&#45;&gt;validate</title>
<path fill="none" stroke="#4f585b" d="M221.38,-189C233.98,-189 246.58,-189 259.17,-189"/>
<polygon fill="#4f585b" stroke="#4f585b" points="259.39,-191.52 266.59,-189 259.39,-186.48 259.39,-191.52"/>
</g>
<!-- prepare -->
<g id="node3" class="node">
<title>prepare</title>
<polygon fill="#f3f5f5" stroke="#263238" points="623,-210 468,-210 468,-168 623,-168 623,-210"/>
<text text-anchor="middle" x="545.5" y="-196.8" font-family="DejaVu Sans" font-size="9.00">Priprema segmenta</text>
<text text-anchor="middle" x="545.5" y="-186.8" font-family="DejaVu Sans" font-size="9.00">osvježavanje baze i</text>
<text text-anchor="middle" x="545.5" y="-176.8" font-family="DejaVu Sans" font-size="9.00">jedno učitavanje profila</text>
</g>
<!-- validate&#45;&gt;prepare -->
<g id="edge2" class="edge">
<title>validate&#45;&gt;prepare</title>
<path fill="none" stroke="#4f585b" d="M422.23,-189C434.98,-189 447.72,-189 460.47,-189"/>
<polygon fill="#4f585b" stroke="#4f585b" points="460.78,-191.52 467.98,-189 460.77,-186.48 460.78,-191.52"/>
</g>
<!-- execute -->
<g id="node4" class="node">
<title>execute</title>
<polygon fill="#f3f5f5" stroke="#263238" points="623,-119 468,-119 468,-77 623,-77 623,-119"/>
<text text-anchor="middle" x="545.5" y="-105.8" font-family="DejaVu Sans" font-size="9.00">Izvršavanje SQL instanci</text>
<text text-anchor="middle" x="545.5" y="-95.8" font-family="DejaVu Sans" font-size="9.00">GAC, region i worker/task</text>
<text text-anchor="middle" x="545.5" y="-85.8" font-family="DejaVu Sans" font-size="9.00">dokazi</text>
</g>
<!-- prepare&#45;&gt;execute -->
<g id="edge3" class="edge">
<title>prepare&#45;&gt;execute</title>
<path fill="none" stroke="#4f585b" d="M545.5,-167.8C545.5,-155.63 545.5,-139.95 545.5,-126.64"/>
<polygon fill="#4f585b" stroke="#4f585b" points="548.02,-126.32 545.5,-119.12 542.98,-126.32 548.02,-126.32"/>
</g>
<!-- progress -->
<g id="node5" class="node">
<title>progress</title>
<polygon fill="#f3f5f5" stroke="#263238" points="422,-116 267,-116 267,-80 422,-80 422,-116"/>
<text text-anchor="middle" x="344.5" y="-100.8" font-family="DejaVu Sans" font-size="9.00">Status i progress</text>
<text text-anchor="middle" x="344.5" y="-90.8" font-family="DejaVu Sans" font-size="9.00">siguran prekid i nastavak</text>
</g>
<!-- execute&#45;&gt;progress -->
<g id="edge4" class="edge">
<title>execute&#45;&gt;progress</title>
<path fill="none" stroke="#4f585b" d="M467.98,-85.21C455.23,-84.42 442.48,-84.29 429.74,-84.81"/>
<polygon fill="#4f585b" stroke="#4f585b" points="429.29,-82.31 422.23,-85.19 429.55,-87.34 429.29,-82.31"/>
</g>
<!-- no_rows -->
<g id="node10" class="node">
<title>no_rows</title>
<polygon fill="#f7f8f8" stroke="#899194" points="813,-207 646,-207 646,-171 819,-171 819,-201 813,-207"/>
<polyline fill="none" stroke="#899194" points="813,-207 813,-201 "/>
<polyline fill="none" stroke="#899194" points="819,-201 813,-201 "/>
<text text-anchor="middle" x="732.5" y="-191.8" font-family="DejaVu Sans" font-size="9.00">Rezultatski redovi iz baze</text>
<text text-anchor="middle" x="732.5" y="-181.8" font-family="DejaVu Sans" font-size="9.00">ne preuzimaju se niti čuvaju.</text>
</g>
<!-- execute&#45;&gt;no_rows -->
<g id="edge12" class="edge">
<title>execute&#45;&gt;no_rows</title>
<path fill="none" stroke="#4f585b" stroke-dasharray="1,5" d="M623.18,-111.46C646.05,-117.43 670.33,-126.19 690.5,-139 703.18,-147.05 714.09,-160.1 721.61,-170.7"/>
</g>
<!-- progress&#45;&gt;prepare -->
<g id="edge5" class="edge">
<title>progress&#45;&gt;prepare</title>
<path fill="none" stroke="#4f585b" stroke-dasharray="5,2" d="M382.93,-116.02C414.27,-129.89 458.83,-149.62 493.37,-164.92"/>
<polygon fill="#4f585b" stroke="#4f585b" points="492.54,-167.3 500.14,-167.92 494.58,-162.7 492.54,-167.3"/>
<text text-anchor="middle" x="485.5" y="-141.6" font-family="DejaVu Sans" font-size="8.00">naredni segment</text>
</g>
<!-- progress&#45;&gt;execute -->
<!-- logical -->
<g id="node6" class="node">
<title>logical</title>
<polygon fill="#dfeceb" stroke="#176b61" points="155,-116 152,-120 131,-120 128,-116 0,-116 0,-80 155,-80 155,-116"/>
<text text-anchor="middle" x="77.5" y="-100.8" font-family="DejaVu Sans" font-size="9.00">Logical run</text>
<text text-anchor="middle" x="77.5" y="-90.8" font-family="DejaVu Sans" font-size="9.00">razrješavanje attempta</text>
</g>
<!-- progress&#45;&gt;logical -->
<g id="edge6" class="edge">
<title>progress&#45;&gt;logical</title>
<path fill="none" stroke="#4f585b" d="M266.72,-98C234.06,-98 195.98,-98 162.58,-98"/>
<polygon fill="#4f585b" stroke="#4f585b" points="162.29,-95.48 155.09,-98 162.29,-100.52 162.29,-95.48"/>
<text text-anchor="middle" x="211" y="-103.6" font-family="DejaVu Sans" font-size="8.00">svi segmenti završeni</text>
</g>
<!-- logical&#45;&gt;progress -->
<!-- normalize -->
<g id="node7" class="node">
<title>normalize</title>
<polygon fill="#f3f5f5" stroke="#263238" points="155,-36 0,-36 0,0 155,0 155,-36"/>
<text text-anchor="middle" x="77.5" y="-20.8" font-family="DejaVu Sans" font-size="9.00">Normalizacija</text>
<text text-anchor="middle" x="77.5" y="-10.8" font-family="DejaVu Sans" font-size="9.00">planovi, regioni i taskovi</text>
</g>
<!-- logical&#45;&gt;normalize -->
<g id="edge7" class="edge">
<title>logical&#45;&gt;normalize</title>
<path fill="none" stroke="#4f585b" d="M77.5,-79.69C77.5,-69.09 77.5,-55.35 77.5,-43.62"/>
<polygon fill="#4f585b" stroke="#4f585b" points="80.02,-43.46 77.5,-36.26 74.98,-43.46 80.02,-43.46"/>
</g>
<!-- features -->
<g id="node8" class="node">
<title>features</title>
<polygon fill="#f3f5f5" stroke="#263238" points="356,-36 201,-36 201,0 356,0 356,-36"/>
<text text-anchor="middle" x="278.5" y="-20.8" font-family="DejaVu Sans" font-size="9.00">Jedan red pokazatelja</text>
<text text-anchor="middle" x="278.5" y="-10.8" font-family="DejaVu Sans" font-size="9.00">po query_run_id</text>
</g>
<!-- normalize&#45;&gt;features -->
<g id="edge8" class="edge">
<title>normalize&#45;&gt;features</title>
<path fill="none" stroke="#4f585b" d="M155.23,-18C167.98,-18 180.72,-18 193.47,-18"/>
<polygon fill="#4f585b" stroke="#4f585b" points="193.78,-20.52 200.98,-18 193.77,-15.48 193.78,-20.52"/>
</g>
<!-- quality -->
<g id="node9" class="node">
<title>quality</title>
<polygon fill="#f3f5f5" stroke="#263238" points="557,-36 402,-36 402,0 557,0 557,-36"/>
<text text-anchor="middle" x="479.5" y="-20.8" font-family="DejaVu Sans" font-size="9.00">Kvalitet i zaključana</text>
<text text-anchor="middle" x="479.5" y="-10.8" font-family="DejaVu Sans" font-size="9.00">vanmrežna analiza</text>
</g>
<!-- features&#45;&gt;quality -->
<g id="edge9" class="edge">
<title>features&#45;&gt;quality</title>
<path fill="none" stroke="#4f585b" d="M356.23,-18C368.98,-18 381.72,-18 394.47,-18"/>
<polygon fill="#4f585b" stroke="#4f585b" points="394.78,-20.52 401.98,-18 394.77,-15.48 394.78,-20.52"/>
</g>
</g>
</svg>
