<?xml version="1.0" encoding="UTF-8" standalone="no"?>
<!DOCTYPE svg PUBLIC "-//W3C//DTD SVG 1.1//EN"
 "http://www.w3.org/Graphics/SVG/1.1/DTD/svg11.dtd">
<!-- Generated by graphviz version 2.43.0 (0)
 -->
<!-- Title: G Pages: 1 -->
<svg width="1333pt" height="308pt"
 viewBox="0.00 0.00 1332.92 307.78" xmlns="http://www.w3.org/2000/svg" xmlns:xlink="http://www.w3.org/1999/xlink">
<g id="graph0" class="graph" transform="scale(1 1) rotate(0) translate(12.96 294.82)">
<title>G</title>
<polygon fill="white" stroke="transparent" points="-12.96,12.96 -12.96,-294.82 1319.96,-294.82 1319.96,12.96 -12.96,12.96"/>
<text text-anchor="middle" x="653.5" y="-267.46" font-family="DejaVu Sans" font-size="13.00">Vanmrežna karakterizacija modelom F19</text>
<!-- corpus -->
<g id="node1" class="node">
<title>corpus</title>
<path fill="#dfeceb" stroke="#176b61" d="M155,-217.75C155,-219.96 120.26,-221.75 77.5,-221.75 34.74,-221.75 0,-219.96 0,-217.75 0,-217.75 0,-181.75 0,-181.75 0,-179.54 34.74,-177.75 77.5,-177.75 120.26,-177.75 155,-179.54 155,-181.75 155,-181.75 155,-217.75 155,-217.75"/>
<path fill="none" stroke="#176b61" d="M155,-217.75C155,-215.54 120.26,-213.75 77.5,-213.75 34.74,-213.75 0,-215.54 0,-217.75"/>
<text text-anchor="middle" x="77.5" y="-202.39" font-family="DejaVu Sans" font-size="9.20">Korpus modela F19</text>
<text text-anchor="middle" x="77.5" y="-192.39" font-family="DejaVu Sans" font-size="9.20">1.964 × 19</text>
</g>
<!-- preprocess -->
<g id="node2" class="node">
<title>preprocess</title>
<polygon fill="#f3f5f5" stroke="#263238" points="377.5,-220.75 179.5,-220.75 179.5,-178.75 377.5,-178.75 377.5,-220.75"/>
<text text-anchor="middle" x="278.5" y="-207.39" font-family="DejaVu Sans" font-size="9.20">Zamrznuti ugovor F19</text>
<text text-anchor="middle" x="278.5" y="-197.39" font-family="DejaVu Sans" font-size="9.20">semantička transformacija,</text>
<text text-anchor="middle" x="278.5" y="-187.39" font-family="DejaVu Sans" font-size="9.20">neutralne vrijednosti i težine porodica</text>
</g>
<!-- corpus&#45;&gt;preprocess -->
<g id="edge1" class="edge">
<title>corpus&#45;&gt;preprocess</title>
<path fill="none" stroke="#4f585b" d="M155.23,-199.75C160.75,-199.75 166.27,-199.75 171.78,-199.75"/>
<polygon fill="#4f585b" stroke="#4f585b" points="172.11,-202.27 179.31,-199.75 172.11,-197.23 172.11,-202.27"/>
</g>
<!-- note_model -->
<g id="node9" class="node">
<title>note_model</title>
<polygon fill="#f7f8f8" stroke="#899194" points="956.5,-217.75 760.5,-217.75 760.5,-181.75 962.5,-181.75 962.5,-211.75 956.5,-217.75"/>
<polyline fill="none" stroke="#899194" points="956.5,-217.75 956.5,-211.75 "/>
<polyline fill="none" stroke="#899194" points="962.5,-211.75 956.5,-211.75 "/>
<text text-anchor="middle" x="861.5" y="-202.19" font-family="DejaVu Sans" font-size="8.20">SQL se u ovom sloju više ne izvršava.</text>
<text text-anchor="middle" x="861.5" y="-193.19" font-family="DejaVu Sans" font-size="8.20">Sve varijante koriste sačuvane artefakte.</text>
</g>
<!-- corpus&#45;&gt;note_model -->
<g id="edge8" class="edge">
<title>corpus&#45;&gt;note_model</title>
<path fill="none" stroke="#4f585b" stroke-dasharray="1,5" d="M119.46,-221.9C137.43,-230.19 158.97,-238.6 179.5,-242.75 300.82,-267.28 614.42,-263.16 736.5,-242.75 765.25,-237.94 796.24,-227.32 820.17,-217.84"/>
</g>
<!-- ablation -->
<g id="node3" class="node">
<title>ablation</title>
<polygon fill="#f3f5f5" stroke="#263238" points="557,-220.75 402,-220.75 402,-178.75 557,-178.75 557,-220.75"/>
<text text-anchor="middle" x="479.5" y="-207.39" font-family="DejaVu Sans" font-size="9.20">Razvojne provjere</text>
<text text-anchor="middle" x="479.5" y="-197.39" font-family="DejaVu Sans" font-size="9.20">porodične ablacije i</text>
<text text-anchor="middle" x="479.5" y="-187.39" font-family="DejaVu Sans" font-size="9.20">kontrola curenja</text>
</g>
<!-- preprocess&#45;&gt;ablation -->
<g id="edge2" class="edge">
<title>preprocess&#45;&gt;ablation</title>
<path fill="none" stroke="#4f585b" d="M377.82,-199.75C383.28,-199.75 388.74,-199.75 394.21,-199.75"/>
<polygon fill="#4f585b" stroke="#4f585b" points="394.45,-202.27 401.65,-199.75 394.45,-197.23 394.45,-202.27"/>
</g>
<!-- models -->
<g id="node4" class="node">
<title>models</title>
<polygon fill="#f3f5f5" stroke="#263238" points="736,-220.75 581,-220.75 581,-178.75 736,-178.75 736,-220.75"/>
<text text-anchor="middle" x="658.5" y="-207.39" font-family="DejaVu Sans" font-size="9.20">FCM model F19</text>
<text text-anchor="middle" x="658.5" y="-197.39" font-family="DejaVu Sans" font-size="9.20">m = 1,7; k = 3 ili 4</text>
<text text-anchor="middle" x="658.5" y="-187.39" font-family="DejaVu Sans" font-size="9.20">10 inicijalizacija</text>
</g>
<!-- ablation&#45;&gt;models -->
<g id="edge3" class="edge">
<title>ablation&#45;&gt;models</title>
<path fill="none" stroke="#4f585b" d="M557.11,-199.75C562.56,-199.75 568,-199.75 573.45,-199.75"/>
<polygon fill="#4f585b" stroke="#4f585b" points="573.68,-202.27 580.88,-199.75 573.68,-197.23 573.68,-202.27"/>
</g>
<!-- validation -->
<g id="node5" class="node">
<title>validation</title>
<polygon fill="#f3f5f5" stroke="#263238" points="757,-127.88 560,-127.88 560,-85.88 757,-85.88 757,-127.88"/>
<text text-anchor="middle" x="658.5" y="-114.52" font-family="DejaVu Sans" font-size="9.20">Validacija</text>
<text text-anchor="middle" x="658.5" y="-104.52" font-family="DejaVu Sans" font-size="9.20">silhouette, PC i PE,</text>
<text text-anchor="middle" x="658.5" y="-94.52" font-family="DejaVu Sans" font-size="9.20">stabilnost i izostavljanje SQL porodica</text>
</g>
<!-- models&#45;&gt;validation -->
<g id="edge4" class="edge">
<title>models&#45;&gt;validation</title>
<path fill="none" stroke="#4f585b" d="M658.5,-178.58C658.5,-165.88 658.5,-149.3 658.5,-135.4"/>
<polygon fill="#4f585b" stroke="#4f585b" points="661.02,-135.19 658.5,-127.99 655.98,-135.19 661.02,-135.19"/>
</g>
<!-- prototypes -->
<g id="node6" class="node">
<title>prototypes</title>
<polygon fill="#f3f5f5" stroke="#263238" points="936,-127.88 781,-127.88 781,-85.88 936,-85.88 936,-127.88"/>
<text text-anchor="middle" x="858.5" y="-114.52" font-family="DejaVu Sans" font-size="9.20">Opisni prototipi P0–P3</text>
<text text-anchor="middle" x="858.5" y="-104.52" font-family="DejaVu Sans" font-size="9.20">centri, članstva i</text>
<text text-anchor="middle" x="858.5" y="-94.52" font-family="DejaVu Sans" font-size="9.20">odstupanja pokazatelja</text>
</g>
<!-- validation&#45;&gt;prototypes -->
<g id="edge5" class="edge">
<title>validation&#45;&gt;prototypes</title>
<path fill="none" stroke="#4f585b" d="M757.33,-106.88C762.67,-106.88 768.02,-106.88 773.36,-106.88"/>
<polygon fill="#4f585b" stroke="#4f585b" points="773.45,-109.4 780.65,-106.88 773.45,-104.36 773.45,-109.4"/>
</g>
<!-- frozen -->
<g id="node7" class="node">
<title>frozen</title>
<path fill="#dfeceb" stroke="#176b61" d="M1115,-130.4C1115,-133.28 1080.26,-135.63 1037.5,-135.63 994.74,-135.63 960,-133.28 960,-130.4 960,-130.4 960,-83.35 960,-83.35 960,-80.47 994.74,-78.12 1037.5,-78.12 1080.26,-78.12 1115,-80.47 1115,-83.35 1115,-83.35 1115,-130.4 1115,-130.4"/>
<path fill="none" stroke="#176b61" d="M1115,-130.4C1115,-127.51 1080.26,-125.17 1037.5,-125.17 994.74,-125.17 960,-127.51 960,-130.4"/>
<text text-anchor="middle" x="1037.5" y="-114.52" font-family="DejaVu Sans" font-size="9.20">Zamrznuti F19</text>
<text text-anchor="middle" x="1037.5" y="-104.52" font-family="DejaVu Sans" font-size="9.20">19 pokazatelja</text>
<text text-anchor="middle" x="1037.5" y="-94.52" font-family="DejaVu Sans" font-size="9.20">4 FCM centra</text>
</g>
<!-- prototypes&#45;&gt;frozen -->
<g id="edge6" class="edge">
<title>prototypes&#45;&gt;frozen</title>
<path fill="none" stroke="#4f585b" d="M936.11,-106.88C941.56,-106.88 947,-106.88 952.45,-106.88"/>
<polygon fill="#4f585b" stroke="#4f585b" points="952.68,-109.4 959.88,-106.88 952.68,-104.36 952.68,-109.4"/>
</g>
<!-- projection -->
<g id="node8" class="node">
<title>projection</title>
<polygon fill="#f3f5f5" stroke="#263238" points="1294,-127.88 1139,-127.88 1139,-85.88 1294,-85.88 1294,-127.88"/>
<text text-anchor="middle" x="1216.5" y="-114.52" font-family="DejaVu Sans" font-size="9.20">Vanjski skupovi i ponovljivost</text>
<text text-anchor="middle" x="1216.5" y="-104.52" font-family="DejaVu Sans" font-size="9.20">projekcija bez</text>
<text text-anchor="middle" x="1216.5" y="-94.52" font-family="DejaVu Sans" font-size="9.20">ponovnog fitovanja</text>
</g>
<!-- frozen&#45;&gt;projection -->
<g id="edge7" class="edge">
<title>frozen&#45;&gt;projection</title>
<path fill="none" stroke="#4f585b" d="M1115.11,-106.88C1120.56,-106.88 1126,-106.88 1131.45,-106.88"/>
<polygon fill="#4f585b" stroke="#4f585b" points="1131.68,-109.4 1138.88,-106.88 1131.68,-104.36 1131.68,-109.4"/>
</g>
<!-- note_projection -->
<g id="node10" class="node">
<title>note_projection</title>
<polygon fill="#f7f8f8" stroke="#899194" points="1301,-36 1126,-36 1126,0 1307,0 1307,-30 1301,-36"/>
<polyline fill="none" stroke="#899194" points="1301,-36 1301,-30 "/>
<polyline fill="none" stroke="#899194" points="1307,-30 1301,-30 "/>
<text text-anchor="middle" x="1216.5" y="-20.44" font-family="DejaVu Sans" font-size="8.20">Novi red koristi isti redoslijed</text>
<text text-anchor="middle" x="1216.5" y="-11.44" font-family="DejaVu Sans" font-size="8.20">19 pokazatelja, transformacije i centre.</text>
</g>
<!-- projection&#45;&gt;note_projection -->
<g id="edge9" class="edge">
<title>projection&#45;&gt;note_projection</title>
<path fill="none" stroke="#4f585b" stroke-dasharray="1,5" d="M1216.5,-85.73C1216.5,-70.69 1216.5,-50.36 1216.5,-36.11"/>
</g>
</g>
</svg>
