<svg xmlns="http://www.w3.org/2000/svg" xmlns:xlink="http://www.w3.org/1999/xlink" contentStyleType="text/css" data-diagram-type="DESCRIPTION" height="954px" preserveAspectRatio="none" style="width:565px;height:954px;background:#FFFFFF;" version="1.1" viewBox="0 0 565 954" width="565px" zoomAndPan="magnify"><?plantuml 1.2026.6?><defs/><g><g class="title" data-source-line="1"><text fill="#000000" font-family="DejaVu Sans" font-size="14" font-weight="700" lengthAdjust="spacing" textLength="397.7354" x="80.3018" y="22.9951">Tok interpretabilne post-execution karakterizacije</text></g><!--entity Q--><g class="entity" data-qualified-name="Q" data-source-line="23" id="ent0001"><path d="M286,53.2969 C286,43.2969 343.8516,43.2969 343.8516,43.2969 C343.8516,43.2969 401.7031,43.2969 401.7031,53.2969 L401.7031,73.9375 C401.7031,83.9375 343.8516,83.9375 343.8516,83.9375 C343.8516,83.9375 286,83.9375 286,73.9375 L286,53.2969" fill="#DFECEB" style="stroke:#176B61;stroke-width:0.5;"/><path d="M286,53.2969 C286,63.2969 343.8516,63.2969 343.8516,63.2969 C343.8516,63.2969 401.7031,63.2969 401.7031,53.2969" fill="none" style="stroke:#176B61;stroke-width:0.5;"/><text fill="#182024" font-family="DejaVu Sans" font-size="10" lengthAdjust="spacing" textLength="95.7031" x="296" y="76.5791">jedan query_run_id</text></g><!--entity C--><g class="entity" data-qualified-name="C" data-source-line="24" id="ent0002"><rect fill="#F3F5F5" height="64.9219" rx="2.5" ry="2.5" style="stroke:#263238;stroke-width:0.5;" width="231.1182" x="228.5" y="144.2969"/><rect fill="#F3F5F5" height="10" style="stroke:#263238;stroke-width:0.5;" width="15" x="439.6182" y="149.2969"/><rect fill="#F3F5F5" height="2" style="stroke:#263238;stroke-width:0.5;" width="4" x="437.6182" y="151.2969"/><rect fill="#F3F5F5" height="2" style="stroke:#263238;stroke-width:0.5;" width="4" x="437.6182" y="155.2969"/><text fill="#182024" font-family="DejaVu Sans" font-size="10" lengthAdjust="spacing" textLength="102.002" x="243.5" y="173.5791">1. Potpunost dokaza</text><text fill="#182024" font-family="DejaVu Sans" font-size="10" lengthAdjust="spacing" textLength="191.1182" x="243.5" y="185.2197">primjenjivost, nedostaju&#263;e vrijednosti,</text><text fill="#182024" font-family="DejaVu Sans" font-size="10" lengthAdjust="spacing" textLength="143.9063" x="243.5" y="196.8604">provjera udaljenih kandidata</text></g><!--entity X--><g class="entity" data-qualified-name="X" data-source-line="25" id="ent0003"><rect fill="#F3F5F5" height="64.9219" rx="2.5" ry="2.5" style="stroke:#263238;stroke-width:0.5;" width="182.5" x="253" y="269.2969"/><rect fill="#F3F5F5" height="10" style="stroke:#263238;stroke-width:0.5;" width="15" x="415.5" y="274.2969"/><rect fill="#F3F5F5" height="2" style="stroke:#263238;stroke-width:0.5;" width="4" x="413.5" y="276.2969"/><rect fill="#F3F5F5" height="2" style="stroke:#263238;stroke-width:0.5;" width="4" x="413.5" y="280.2969"/><text fill="#182024" font-family="DejaVu Sans" font-size="10" lengthAdjust="spacing" textLength="142.5" x="268" y="298.5791">2. Zaklju&#269;ana reprezentacija</text><text fill="#182024" font-family="DejaVu Sans" font-size="10" lengthAdjust="spacing" textLength="137.2754" x="268" y="310.2197">19 semanti&#269;kih pokazatelja</text><text fill="#182024" font-family="DejaVu Sans" font-size="10" lengthAdjust="spacing" textLength="95.1367" x="268" y="321.8604">+ porodi&#269;ne te&#382;ine</text></g><!--entity F--><g class="entity" data-qualified-name="F" data-source-line="26" id="ent0004"><rect fill="#F3F5F5" height="64.9219" rx="2.5" ry="2.5" style="stroke:#263238;stroke-width:0.5;" width="171.3281" x="258.5" y="394.2969"/><rect fill="#F3F5F5" height="10" style="stroke:#263238;stroke-width:0.5;" width="15" x="409.8281" y="399.2969"/><rect fill="#F3F5F5" height="2" style="stroke:#263238;stroke-width:0.5;" width="4" x="407.8281" y="401.2969"/><rect fill="#F3F5F5" height="2" style="stroke:#263238;stroke-width:0.5;" width="4" x="407.8281" y="405.2969"/><text fill="#182024" font-family="DejaVu Sans" font-size="10" lengthAdjust="spacing" textLength="85.7422" x="273.5" y="423.5791">3. FCM projekcija</text><text fill="#182024" font-family="DejaVu Sans" font-size="10" lengthAdjust="spacing" textLength="131.3281" x="273.5" y="435.2197">&#269;etiri operativna prototipa</text><text fill="#182024" font-family="DejaVu Sans" font-size="10" lengthAdjust="spacing" textLength="82.9297" x="273.5" y="446.8604">+ fuzzy &#269;lanstva</text></g><!--entity D--><g class="entity" data-qualified-name="D" data-source-line="27" id="ent0005"><rect fill="#F3F5F5" height="64.9219" rx="2.5" ry="2.5" style="stroke:#263238;stroke-width:0.5;" width="179.6387" x="144" y="519.2969"/><rect fill="#F3F5F5" height="10" style="stroke:#263238;stroke-width:0.5;" width="15" x="303.6387" y="524.2969"/><rect fill="#F3F5F5" height="2" style="stroke:#263238;stroke-width:0.5;" width="4" x="301.6387" y="526.2969"/><rect fill="#F3F5F5" height="2" style="stroke:#263238;stroke-width:0.5;" width="4" x="301.6387" y="530.2969"/><text fill="#182024" font-family="DejaVu Sans" font-size="10" lengthAdjust="spacing" textLength="139.6387" x="159" y="548.5791">4. Geometrijsko obja&#353;njenje</text><text fill="#182024" font-family="DejaVu Sans" font-size="10" lengthAdjust="spacing" textLength="116.3525" x="159" y="560.2197">odstupanja pokazatelja</text><text fill="#182024" font-family="DejaVu Sans" font-size="10" lengthAdjust="spacing" textLength="53.9209" x="159" y="571.8604">od centara</text></g><!--entity E--><g class="entity" data-qualified-name="E" data-source-line="28" id="ent0006"><rect fill="#F3F5F5" height="64.9219" rx="2.5" ry="2.5" style="stroke:#263238;stroke-width:0.5;" width="167.793" x="42" y="644.2969"/><rect fill="#F3F5F5" height="10" style="stroke:#263238;stroke-width:0.5;" width="15" x="189.793" y="649.2969"/><rect fill="#F3F5F5" height="2" style="stroke:#263238;stroke-width:0.5;" width="4" x="187.793" y="651.2969"/><rect fill="#F3F5F5" height="2" style="stroke:#263238;stroke-width:0.5;" width="4" x="187.793" y="655.2969"/><text fill="#182024" font-family="DejaVu Sans" font-size="10" lengthAdjust="spacing" textLength="91.5381" x="57" y="673.5791">5. Fizi&#269;ka provjera</text><text fill="#182024" font-family="DejaVu Sans" font-size="10" lengthAdjust="spacing" textLength="127.793" x="57" y="685.2197">GAC, region i worker/task</text><text fill="#182024" font-family="DejaVu Sans" font-size="10" lengthAdjust="spacing" textLength="77.2217" x="57" y="696.8604">planovi i omjeri</text></g><!--entity O--><g class="entity" data-qualified-name="O" data-source-line="29" id="ent0007"><rect fill="#F3F5F5" height="64.9219" rx="2.5" ry="2.5" style="stroke:#263238;stroke-width:0.5;" width="237.7539" x="7" y="769.2969"/><rect fill="#F3F5F5" height="10" style="stroke:#263238;stroke-width:0.5;" width="15" x="224.7539" y="774.2969"/><rect fill="#F3F5F5" height="2" style="stroke:#263238;stroke-width:0.5;" width="4" x="222.7539" y="776.2969"/><rect fill="#F3F5F5" height="2" style="stroke:#263238;stroke-width:0.5;" width="4" x="222.7539" y="780.2969"/><text fill="#182024" font-family="DejaVu Sans" font-size="10" lengthAdjust="spacing" textLength="107.251" x="22" y="798.5791">Karakterizacijski izlaz</text><text fill="#182024" font-family="DejaVu Sans" font-size="10" lengthAdjust="spacing" textLength="169.3848" x="22" y="810.2197">prototipska sli&#269;nost + dominantni</text><text fill="#182024" font-family="DejaVu Sans" font-size="10" lengthAdjust="spacing" textLength="197.7539" x="22" y="821.8604">izmjereni signali + granica pouzdanosti</text></g><g class="entity" data-qualified-name="GMN14" data-source-line="39" id="ent0015"><path d="M359.5,535.2969 L359.5,568.5781 A0,0 0 0 0 359.5,568.5781 L550.3389,568.5781 A0,0 0 0 0 550.3389,568.5781 L550.3389,545.2969 L540.3389,535.2969 L444.74,535.2969 L372.59,459.4769 L436.74,535.2969 L359.5,535.2969 A0,0 0 0 0 359.5,535.2969" fill="#F7F8F8" style="stroke:#899194;stroke-width:0.5;"/><path d="M540.3389,535.2969 L540.3389,545.2969 L550.3389,545.2969 L540.3389,535.2969" fill="#F7F8F8" style="stroke:#899194;stroke-width:0.5;"/><text fill="#182024" font-family="DejaVu Sans" font-size="10" lengthAdjust="spacing" textLength="169.8389" x="365.5" y="549.5791">&#268;lanstvo nije vjerovatno&#263;a uzroka</text><text fill="#182024" font-family="DejaVu Sans" font-size="10" lengthAdjust="spacing" textLength="166.2646" x="365.5" y="561.2197">niti procenat vremena ili pritiska.</text></g><g class="entity" data-qualified-name="GMN17" data-source-line="44" id="ent0018"><path d="M245,660.2969 L245,693.5781 A0,0 0 0 0 245,693.5781 L441.1807,693.5781 A0,0 0 0 0 441.1807,693.5781 L441.1807,670.2969 L431.1807,660.2969 L333,660.2969 L262.07,584.4769 L325,660.2969 L245,660.2969 A0,0 0 0 0 245,660.2969" fill="#F7F8F8" style="stroke:#899194;stroke-width:0.5;"/><path d="M431.1807,660.2969 L431.1807,670.2969 L441.1807,670.2969 L431.1807,660.2969" fill="#F7F8F8" style="stroke:#899194;stroke-width:0.5;"/><text fill="#182024" font-family="DejaVu Sans" font-size="10" lengthAdjust="spacing" textLength="175.1807" x="251" y="674.5791">Odstupanje pokazatelja obja&#353;njava</text><text fill="#182024" font-family="DejaVu Sans" font-size="10" lengthAdjust="spacing" textLength="151.792" x="251" y="686.2197">geometriju, ne kauzalni uticaj.</text></g><g class="entity" data-qualified-name="GMN20" data-source-line="49" id="ent0021"><path d="M22.5,894.2969 L22.5,939.2188 A0,0 0 0 0 22.5,939.2188 L229.3496,939.2188 A0,0 0 0 0 229.3496,939.2188 L229.3496,904.2969 L219.3496,894.2969 L130,894.2969 L126,834.5769 L122,894.2969 L22.5,894.2969 A0,0 0 0 0 22.5,894.2969" fill="#F7F8F8" style="stroke:#899194;stroke-width:0.5;"/><path d="M219.3496,894.2969 L219.3496,904.2969 L229.3496,904.2969 L219.3496,894.2969" fill="#F7F8F8" style="stroke:#899194;stroke-width:0.5;"/><text fill="#182024" font-family="DejaVu Sans" font-size="10" lengthAdjust="spacing" textLength="185.8496" x="28.5" y="908.5791">Mje&#353;ovita granica i slaba pokrivenost</text><text fill="#182024" font-family="DejaVu Sans" font-size="10" lengthAdjust="spacing" textLength="140.3369" x="28.5" y="920.2197">ostaju eksplicitni izlazi, a ne</text><text fill="#182024" font-family="DejaVu Sans" font-size="10" lengthAdjust="spacing" textLength="131.543" x="28.5" y="931.8604">prisilne sigurne dijagnoze.</text></g><!--link Q to C--><g class="link" data-entity-1="ent0001" data-entity-2="ent0002" data-link-type="dependency" data-source-line="31" id="lnk8"><path d="M344,84.3869 C344,100.9369 344,119.9669 344,139.2369" fill="none" id="Q-to-C" style="stroke:#4F585B;stroke-width:1;"/><polygon fill="#4F585B" points="344,144.2369,348,135.2369,344,139.2369,340,135.2369,344,144.2369" style="stroke:#4F585B;stroke-width:1;stroke-linejoin:miter;stroke-miterlimit:10;"/></g><!--link C to X--><g class="link" data-entity-1="ent0002" data-entity-2="ent0003" data-link-type="dependency" data-source-line="32" id="lnk9"><path d="M344,209.4769 C344,227.8369 344,245.8869 344,264.2269" fill="none" id="C-to-X" style="stroke:#4F585B;stroke-width:1;"/><polygon fill="#4F585B" points="344,269.2269,348,260.2269,344,264.2269,340,260.2269,344,269.2269" style="stroke:#4F585B;stroke-width:1;stroke-linejoin:miter;stroke-miterlimit:10;"/></g><!--link X to F--><g class="link" data-entity-1="ent0003" data-entity-2="ent0004" data-link-type="dependency" data-source-line="33" id="lnk10"><path d="M344,334.4769 C344,352.8369 344,370.8869 344,389.2269" fill="none" id="X-to-F" style="stroke:#4F585B;stroke-width:1;"/><polygon fill="#4F585B" points="344,394.2269,348,385.2269,344,389.2269,340,385.2269,344,394.2269" style="stroke:#4F585B;stroke-width:1;stroke-linejoin:miter;stroke-miterlimit:10;"/></g><!--link F to D--><g class="link" data-entity-1="ent0004" data-entity-2="ent0005" data-link-type="dependency" data-source-line="34" id="lnk11"><path d="M315.67,459.4769 C299.25,477.8369 281.974,497.1607 265.564,515.5007" fill="none" id="F-to-D" style="stroke:#4F585B;stroke-width:1;"/><polygon fill="#4F585B" points="262.23,519.2269,271.2122,515.187,265.564,515.5007,265.2503,509.8526,262.23,519.2269" style="stroke:#4F585B;stroke-width:1;stroke-linejoin:miter;stroke-miterlimit:10;"/></g><!--link D to E--><g class="link" data-entity-1="ent0005" data-entity-2="ent0006" data-link-type="dependency" data-source-line="35" id="lnk12"><path d="M206.19,584.4769 C190.06,602.8369 173.1298,622.1303 157.0198,640.4703" fill="none" id="D-to-E" style="stroke:#4F585B;stroke-width:1;"/><polygon fill="#4F585B" points="153.72,644.2269,162.6648,640.1049,157.0198,640.4703,156.6544,634.8253,153.72,644.2269" style="stroke:#4F585B;stroke-width:1;stroke-linejoin:miter;stroke-miterlimit:10;"/></g><!--link E to O--><g class="link" data-entity-1="ent0006" data-entity-2="ent0007" data-link-type="dependency" data-source-line="36" id="lnk13"><path d="M126,709.4769 C126,727.8369 126,745.8869 126,764.2269" fill="none" id="E-to-O" style="stroke:#4F585B;stroke-width:1;"/><polygon fill="#4F585B" points="126,769.2269,130,760.2269,126,764.2269,122,760.2269,126,769.2269" style="stroke:#4F585B;stroke-width:1;stroke-linejoin:miter;stroke-miterlimit:10;"/></g><?plantuml-src XLHDRzn63BtFho2SO-njTkrrrfS0wQutXo9rWmI1KHW8k1fgGtrmrD58JbJqd4lz8_97Sbh_ht1c7LT9a_P4YHmzak-zKU1G4Rno9R04yesdW1kkXA1nRJYYTvHrWPr0YHvBFS43PboGCMt9qcYoXlOjMdVDieKSgvP65KivTbLOEmc_OasmeW9VT_0IfVt-gPSy44mVZOfFlNVNIrSv3mzEylbYlXaLCrStJaW2_6a0ViQit7hNYRqxdn_dytmUAyvRydVPsUdnx7YXsTZmBZTTp1xDJinVuwbGcS2MlWzjSyfeyotqzF7fvdJwlz3YmWzWyyVv8bzy2xiuEvkUdVm0rjmFUb2GHO4_ElBlt_XEth0z06pXXVc7fuFf17vpeUb4vGNhIXpmIXhFTK5ISA_PGn2o6h7eTXy8UgzostYS3-D9rnVa4JgBbNx2RzKPOZaEaPejnyrc4_WToqg1Rb0GFAc_1gr42sdRwHcqLAC4tjsKYjIaSG9LiVXGNxspMb8p1hhzn4Afm-Mum_44rilde6CLLEvHTpSKs3EuHkSCt6jZBGSNk4cmUJSCxs5tKwaBGx-VUZt6F9d0Ct8r1TsyBHsuJO6t7oKIH5VYR1kw1gN0h-Tr5hAucjyZhiQ8SvsIXxXbcYKnU2NFdYuFbPDjl5uCrywNv7yAs9PAimxdUjQqKs4y9yZpCUGlNzr7zHRmKE6G54gxjjghhI9zKUc7gdNDebmBNmaF4LNLWvQtWXLhVUjHE8jBTOFQAEgTkbuOymAEZfweiiiKByrbYckpJd5bLYcUc_CKzODay8qBmTNWSZsv-tlFjWDHDq4amFKOnEq-g9K6hqGQuS2H7MKHWzgEQdq0hc9IIxhFn93OT7l-rM9bBhxeGcDTxiN37itsYwfTzBWQjnkmKXBq3vTXyH_e5-PvGRSVLP60zqGfUPLUlDZDSq-HCRE_Da1bsrISiPAzbuKF0RMbqKtQz7TLtZklqQfbj-866dN_3000?></g></svg>