<?xml version="1.0" encoding="UTF-8" standalone="no"?>
<!DOCTYPE svg PUBLIC "-//W3C//DTD SVG 1.1//EN"
 "http://www.w3.org/Graphics/SVG/1.1/DTD/svg11.dtd">
<!-- Generated by graphviz version 2.43.0 (0)
 -->
<!-- Title: G Pages: 1 -->
<svg width="560pt" height="336pt"
 viewBox="0.00 0.00 559.78 336.28" xmlns="http://www.w3.org/2000/svg" xmlns:xlink="http://www.w3.org/1999/xlink">
<g id="graph0" class="graph" transform="scale(1 1) rotate(0) translate(8.64 327.64)">
<title>G</title>
<polygon fill="white" stroke="transparent" points="-8.64,8.64 -8.64,-327.64 551.14,-327.64 551.14,8.64 -8.64,8.64"/>
<text text-anchor="middle" x="271.25" y="-304.6" font-family="DejaVu Sans" font-size="13.00">Granica kompresije u opisnom modelu F19</text>
<!-- evidence -->
<g id="node1" class="node">
<title>evidence</title>
<polygon fill="#eef1f2" stroke="#263238" points="302,-297 0,-297 0,-261 302,-261 302,-297"/>
<text text-anchor="middle" x="151" y="-281.48" font-family="DejaVu Sans" font-size="9.40">E: dokazni artefakti</text>
<text text-anchor="middle" x="151" y="-271.48" font-family="DejaVu Sans" font-size="9.40">GAC + regioni + poslovi na radnim čvorovima</text>
</g>
<!-- derived -->
<g id="node2" class="node">
<title>derived</title>
<polygon fill="#dfeceb" stroke="#263238" stroke-width="1.5" points="302,-222 0,-222 0,-176 302,-176 302,-222"/>
<text text-anchor="middle" x="151" y="-206.48" font-family="DejaVu Sans" font-size="9.40">Z: puni izvedeni pokazatelji</text>
<text text-anchor="middle" x="151" y="-196.48" font-family="DejaVu Sans" font-size="9.40">worker_rows_cv je prisutan</text>
<text text-anchor="middle" x="151" y="-186.48" font-family="DejaVu Sans" font-size="9.40">B–C delta = 0,5482</text>
</g>
<!-- evidence&#45;&gt;derived -->
<g id="edge1" class="edge">
<title>evidence&#45;&gt;derived</title>
<path fill="none" stroke="#4f585b" d="M151,-260.69C151,-251.52 151,-240 151,-229.46"/>
<polygon fill="#4f585b" stroke="#4f585b" points="153.52,-229.22 151,-222.02 148.48,-229.22 153.52,-229.22"/>
<text text-anchor="middle" x="199.5" y="-239.2" font-family="DejaVu Sans" font-size="8.50">korelacija i izvođenje g</text>
</g>
<!-- selected -->
<g id="node3" class="node">
<title>selected</title>
<polygon fill="#f4eee2" stroke="#263238" stroke-width="1.5" points="302,-134 0,-134 0,-88 302,-88 302,-134"/>
<text text-anchor="middle" x="151" y="-118.48" font-family="DejaVu Sans" font-size="9.40">x_F19(19): semantički ulaz modela</text>
<text text-anchor="middle" x="151" y="-108.48" font-family="DejaVu Sans" font-size="9.40">worker CV je normalizovan</text>
<text text-anchor="middle" x="151" y="-98.48" font-family="DejaVu Sans" font-size="9.40">B–C udaljenost = 0,1827</text>
</g>
<!-- derived&#45;&gt;selected -->
<g id="edge2" class="edge">
<title>derived&#45;&gt;selected</title>
<path fill="none" stroke="#4f585b" d="M151,-175.85C151,-165.42 151,-152.83 151,-141.59"/>
<polygon fill="#4f585b" stroke="#4f585b" points="153.52,-141.27 151,-134.07 148.48,-141.27 153.52,-141.27"/>
<text text-anchor="middle" x="216.5" y="-154.2" font-family="DejaVu Sans" font-size="8.50">semantička transformacija F19</text>
</g>
<!-- membership -->
<g id="node4" class="node">
<title>membership</title>
<polygon fill="#eef1f2" stroke="#263238" points="302,-46 0,-46 0,0 302,0 302,-46"/>
<text text-anchor="middle" x="151" y="-30.48" font-family="DejaVu Sans" font-size="9.40">u_F19(4): fuzzy članstva</text>
<text text-anchor="middle" x="151" y="-20.48" font-family="DejaVu Sans" font-size="9.40">medijana B–C L1 = 0,0430</text>
<text text-anchor="middle" x="151" y="-10.48" font-family="DejaVu Sans" font-size="9.40">vodeći prototip ostaje isti</text>
</g>
<!-- selected&#45;&gt;membership -->
<g id="edge3" class="edge">
<title>selected&#45;&gt;membership</title>
<path fill="none" stroke="#4f585b" d="M151,-87.85C151,-77.42 151,-64.83 151,-53.59"/>
<polygon fill="#4f585b" stroke="#4f585b" points="153.52,-53.27 151,-46.07 148.48,-53.27 153.52,-53.27"/>
<text text-anchor="middle" x="181.5" y="-63.2" font-family="DejaVu Sans" font-size="8.50">zamrznuti F19</text>
</g>
<!-- note -->
<g id="node5" class="node">
<title>note</title>
<polygon fill="#fafafa" stroke="#7b8588" points="536.5,-137 355.5,-137 355.5,-85 542.5,-85 542.5,-131 536.5,-137"/>
<polyline fill="none" stroke="#7b8588" points="536.5,-137 536.5,-131 "/>
<polyline fill="none" stroke="#7b8588" points="542.5,-131 536.5,-131 "/>
<text text-anchor="middle" x="449" y="-122.2" font-family="DejaVu Sans" font-size="8.50">Signal ostaje u x_F19, ali je</text>
<text text-anchor="middle" x="449" y="-113.2" font-family="DejaVu Sans" font-size="8.50">članstvo grublji sažetak.</text>
<text text-anchor="middle" x="449" y="-104.2" font-family="DejaVu Sans" font-size="8.50">Promjena intenziteta ne mora</text>
<text text-anchor="middle" x="449" y="-95.2" font-family="DejaVu Sans" font-size="8.50">promijeniti vodeći prototip.</text>
</g>
<!-- selected&#45;&gt;note -->
<g id="edge4" class="edge">
<title>selected&#45;&gt;note</title>
<path fill="none" stroke="#7b8588" stroke-dasharray="5,2" d="M302.04,-111C326.17,-111 349.67,-111 349.67,-111 349.67,-111 351.74,-111 355.29,-111"/>
</g>
</g>
</svg>
